<svg width="140" height="140" viewBox="0 0 140 140" fill="none" xmlns="http://www.w3.org/2000/svg">
<path d="M135.867 26.965H127.664V113.035H135.867C137.153 111.748 137.949 109.971 137.949 108.008V31.9922C137.949 30.0289 137.153 28.2516 135.867 26.965Z" fill="#7CC57E"/>
<path d="M129.746 31.9922C129.746 30.0289 128.95 28.2516 127.664 26.965H20.5393C19.2527 28.2516 18.457 30.0289 18.457 31.9922V108.008C18.457 109.971 19.2527 111.748 20.5393 113.035H127.664C128.95 111.748 129.746 109.971 129.746 108.008V31.9922Z" fill="#E3F3DA"/>
<path d="M129.746 106.914L122.637 115.117H130.84C132.803 115.117 134.58 114.321 135.867 113.035L129.746 106.914Z" fill="#23AA44"/>
<path d="M129.746 108.008V106.914L78.2032 55.3711L20.5393 113.035C21.8258 114.321 23.6032 115.117 25.5665 115.117H122.637C126.563 115.117 129.746 111.934 129.746 108.008Z" fill="#7CC57E"/>
<path d="M130.84 24.8828H122.637L129.746 33.0859L135.867 26.965C134.58 25.6785 132.803 24.8828 130.84 24.8828Z" fill="#E3F3DA"/>
<path d="M122.637 24.8828H25.5665C23.6032 24.8828 21.8258 25.6785 20.5393 26.965L68.0524 74.4781C73.6586 80.0841 82.748 80.0844 88.354 74.4781L129.746 33.0859V31.9922C129.746 28.0659 126.563 24.8828 122.637 24.8828Z" fill="white"/>
<path d="M130.84 22.832H25.5664C20.5155 22.832 16.4062 26.9412 16.4062 31.9922V51.543H2.05078C0.918203 51.543 0 52.4609 0 53.5938C0 54.7266 0.918203 55.6445 2.05078 55.6445H26.6602C27.7927 55.6445 28.7109 54.7266 28.7109 53.5938C28.7109 52.4609 27.7927 51.543 26.6602 51.543H20.5078V31.9922C20.5078 31.3518 20.6322 30.7409 20.8504 30.1766L60.6739 70L20.8504 109.823C20.6322 109.259 20.5078 108.648 20.5078 108.008V94.6094C20.5078 93.4765 19.5896 92.5586 18.457 92.5586C17.3245 92.5586 16.4062 93.4765 16.4062 94.6094V108.008C16.4062 113.059 20.5155 117.168 25.5664 117.168H130.84C135.891 117.168 140 113.059 140 108.008V31.9922C140 26.9412 135.891 22.832 130.84 22.832ZM95.7324 70L135.556 30.1766C135.774 30.7409 135.898 31.3518 135.898 31.9922V108.008C135.898 108.648 135.774 109.259 135.556 109.823L95.7324 70ZM130.84 26.9336C131.48 26.9336 132.091 27.058 132.655 27.2762L86.9039 73.0278C82.1064 77.8258 74.3001 77.8258 69.5023 73.0278L23.7508 27.2762C24.3152 27.058 24.926 26.9336 25.5664 26.9336H130.84ZM25.5664 113.066C24.926 113.066 24.3152 112.942 23.7508 112.724L63.5742 72.9003L66.6023 75.9284C69.8007 79.1265 74.002 80.7259 78.2034 80.7259C82.4048 80.7259 86.6059 79.1265 89.8043 75.9284L92.8323 72.9003L132.656 112.724C132.091 112.942 131.481 113.066 130.84 113.066H25.5664Z" fill="black"/>
<path d="M18.457 59.7461C17.3245 59.7461 16.4062 60.664 16.4062 61.7969V67.9492H2.05078C0.918203 67.9492 0 68.8671 0 70C0 71.1329 0.918203 72.0508 2.05078 72.0508H34.8633C35.9959 72.0508 36.9141 71.1329 36.9141 70C36.9141 68.8671 35.9959 67.9492 34.8633 67.9492H20.5078V61.7969C20.5078 60.664 19.5896 59.7461 18.457 59.7461Z" fill="black"/>
<path d="M26.6602 88.457C27.7927 88.457 28.7109 87.5391 28.7109 86.4062C28.7109 85.2734 27.7927 84.3555 26.6602 84.3555H20.5078V78.2031C20.5078 77.0703 19.5896 76.1523 18.457 76.1523C17.3245 76.1523 16.4062 77.0703 16.4062 78.2031V84.3555H2.05078C0.918203 84.3555 0 85.2734 0 86.4062C0 87.5391 0.918203 88.457 2.05078 88.457H26.6602Z" fill="black"/>
</svg>
