<svg width="147" height="147" viewBox="0 0 147 147" fill="none" xmlns="http://www.w3.org/2000/svg">
<path d="M73.5 3.7757V143.224C112.007 143.224 143.224 112.007 143.224 73.5C143.224 34.9926 112.007 3.7757 73.5 3.7757Z" fill="#CC3245"/>
<path d="M128.122 73.5C128.122 34.9926 103.667 3.7757 73.4999 3.7757C34.9925 3.7757 3.77563 34.9926 3.77563 73.5C3.77563 112.007 34.9925 143.224 73.4999 143.224C103.667 143.224 128.122 112.007 128.122 73.5Z" fill="#FF3E3A"/>
<path d="M73.5 147C114.028 147 147 114.028 147 73.5C147 32.9718 114.028 0 73.5 0C56.8029 0 40.4527 5.75616 27.4618 16.2078C25.8373 17.5152 25.58 19.8918 26.8869 21.5164C28.1938 23.1414 30.5705 23.3987 32.1955 22.0918C44.0184 12.5791 58.3016 7.55137 73.5 7.55137C109.864 7.55137 139.449 37.1361 139.449 73.5C139.449 109.864 109.864 139.449 73.5 139.449C37.1361 139.449 7.55137 109.864 7.55137 73.5C7.55137 58.3016 12.5791 44.0184 22.0913 32.1955C23.3987 30.571 23.1409 28.1943 21.5164 26.8869C19.8908 25.58 17.5141 25.8373 16.2078 27.4623C5.75616 40.4527 0 56.8029 0 73.5C0 114.028 32.9718 147 73.5 147Z" fill="black"/>
<path d="M70.4836 86.3653C69.7156 86.3653 69.3316 86.0133 69.3316 85.3093L68.4676 45.2773C68.4676 44.5093 68.8516 44.1253 69.6196 44.1253H80.2756C80.9796 44.1253 81.3316 44.5093 81.3316 45.2773L80.5636 85.3093C80.5636 86.0133 80.1796 86.3653 79.4116 86.3653H70.4836ZM74.9956 108.157C72.6276 108.157 70.8356 107.613 69.6196 106.525C68.4676 105.373 67.8916 103.773 67.8916 101.725V100.189C67.8916 98.0773 68.4676 96.4773 69.6196 95.3893C70.8356 94.2373 72.6276 93.6613 74.9956 93.6613C77.3636 93.6613 79.1236 94.2373 80.2756 95.3893C81.4276 96.4773 82.0036 98.0773 82.0036 100.189V101.725C82.0036 103.773 81.4276 105.373 80.2756 106.525C79.1236 107.613 77.3636 108.157 74.9956 108.157Z" fill="white"/>
</svg>
