<svg width="116" height="116" viewBox="0 0 116 116" fill="none" xmlns="http://www.w3.org/2000/svg">
<g clip-path="url(#clip0_41_659)">
<path d="M100.707 15.293H56.3008L44.6978 3.69002C43.4232 2.41538 41.6943 1.69922 39.8918 1.69922H8.49609C4.74218 1.69922 1.69922 4.74218 1.69922 8.49609V53.5872H107.504V22.0898C107.504 18.3359 104.461 15.293 100.707 15.293Z" fill="#23AA44"/>
<path d="M107.504 15.293H100.707V53.5872H114.301V22.0898C114.301 18.3359 111.258 15.293 107.504 15.293Z" fill="#2F6644"/>
<path d="M100.707 22.0898L93.9102 35.6836L107.504 28.8867V22.0898H100.707Z" fill="#F2FAF4"/>
<path d="M8.49609 22.0898V28.8867L15.293 35.6836H100.707V22.0898H8.49609Z" fill="#F2FAF4"/>
<path d="M100.707 28.8867L93.9102 49.2773H107.504V28.8867H100.707Z" fill="#F2FAF4"/>
<path d="M8.49609 28.8867H100.707V49.2773H8.49609V28.8867Z" fill="white"/>
<path d="M107.504 42.4805H100.707V114.301H107.504C111.258 114.301 114.301 111.258 114.301 107.504V49.2773C114.301 45.5234 111.258 42.4805 107.504 42.4805Z" fill="#23AA44"/>
<path d="M107.504 107.504V49.2773C107.504 45.5234 104.461 42.4805 100.707 42.4805H8.49609C4.74218 42.4805 1.69922 45.5234 1.69922 49.2773V107.504C1.69922 111.258 4.74218 114.301 8.49609 114.301H100.707C104.461 114.301 107.504 111.258 107.504 107.504Z" fill="#7CC57E"/>
<path d="M8.49609 23.7891H107.504C108.442 23.7891 109.203 23.0283 109.203 22.0898C109.203 21.1514 108.442 20.3906 107.504 20.3906H8.49609C7.55767 20.3906 6.79688 21.1514 6.79688 22.0898C6.79688 23.0283 7.55767 23.7891 8.49609 23.7891Z" fill="black"/>
<path d="M8.49609 37.3828C9.43452 37.3828 10.1953 36.622 10.1953 35.6836V30.5859H105.805V35.6836C105.805 36.622 106.565 37.3828 107.504 37.3828C108.442 37.3828 109.203 36.622 109.203 35.6836V28.8867C109.203 27.9483 108.442 27.1875 107.504 27.1875H8.49609C7.55767 27.1875 6.79688 27.9483 6.79688 28.8867V35.6836C6.79688 36.622 7.55767 37.3828 8.49609 37.3828Z" fill="black"/>
<path d="M107.504 13.5938H57.0045L45.8993 2.48834C44.2946 0.883594 42.161 0 39.8918 0H8.49609C3.81123 0 0 3.81123 0 8.49609V107.504C0 112.189 3.81123 116 8.49609 116H107.504C112.189 116 116 112.189 116 107.504V22.0898C116 17.405 112.189 13.5938 107.504 13.5938ZM8.49609 3.39844H39.8918C41.2534 3.39844 42.5335 3.92859 43.4964 4.89148L55.0993 16.4944C55.4179 16.8132 55.8501 16.9922 56.3008 16.9922H107.504C110.315 16.9922 112.602 19.2789 112.602 22.0898V42.485C111.181 41.4159 109.415 40.7812 107.504 40.7812H8.49609C6.58481 40.7812 4.81944 41.4159 3.39844 42.485V8.49609C3.39844 5.68513 5.68513 3.39844 8.49609 3.39844ZM112.602 107.504C112.602 110.315 110.315 112.602 107.504 112.602H8.49609C5.68513 112.602 3.39844 110.315 3.39844 107.504V49.2773C3.39844 46.4664 5.68513 44.1797 8.49609 44.1797H107.504C110.315 44.1797 112.602 46.4664 112.602 49.2773V107.504Z" fill="black"/>
<path d="M56.2273 94.4697L44.5272 82.7024C43.8243 81.9955 43.8243 80.8492 44.5272 80.1422L47.0728 77.582C47.7757 76.8749 48.9155 76.8749 49.6184 77.582L57.5001 85.5089L74.3818 68.5302C75.0847 67.8233 76.2244 67.8233 76.9273 68.5302L79.4729 71.0905C80.1758 71.7974 80.1758 72.9437 79.4729 73.6507L58.7729 94.4698C58.0699 95.1768 56.9302 95.1768 56.2273 94.4697Z" fill="white"/>
</g>
<defs>
<clipPath id="clip0_41_659">
<rect width="116" height="116" fill="white"/>
</clipPath>
</defs>
</svg>
