<svg width="147" height="147" viewBox="0 0 147 147" fill="none" xmlns="http://www.w3.org/2000/svg">
<path d="M73.5 3.7757V143.224C112.007 143.224 143.224 112.007 143.224 73.5C143.224 34.9926 112.007 3.7757 73.5 3.7757Z" fill="#23AA44"/>
<path d="M128.122 73.5C128.122 34.9926 103.667 3.7757 73.5001 3.7757C34.9926 3.7757 3.77576 34.9926 3.77576 73.5C3.77576 112.007 34.9926 143.224 73.5001 143.224C103.667 143.224 128.122 112.007 128.122 73.5Z" fill="#7CC57E"/>
<path d="M73.5 147C114.028 147 147 114.028 147 73.5C147 32.9718 114.028 0 73.5 0C56.8029 0 40.4527 5.75616 27.4618 16.2078C25.8373 17.5152 25.58 19.8918 26.8869 21.5164C28.1938 23.1414 30.5705 23.3987 32.1955 22.0918C44.0184 12.5791 58.3016 7.55137 73.5 7.55137C109.864 7.55137 139.449 37.1361 139.449 73.5C139.449 109.864 109.864 139.449 73.5 139.449C37.1361 139.449 7.55137 109.864 7.55137 73.5C7.55137 58.3016 12.5791 44.0184 22.0913 32.1955C23.3987 30.571 23.1409 28.1943 21.5164 26.8869C19.8908 25.58 17.5141 25.8373 16.2078 27.4623C5.75616 40.4527 0 56.8029 0 73.5C0 114.028 32.9718 147 73.5 147Z" fill="black"/>
<path d="M62.1149 98.9591L39.0398 75.8603C37.6535 74.4726 37.6535 72.2226 39.0398 70.8347L44.0602 65.8091C45.4465 64.4212 47.6944 64.4212 49.0807 65.8091L64.6251 81.3693L97.9196 48.0408C99.3059 46.6531 101.554 46.6531 102.94 48.0408L107.96 53.0664C109.347 54.4542 109.347 56.7042 107.96 58.0921L67.1354 98.9592C65.7489 100.347 63.5012 100.347 62.1149 98.9591Z" fill="white"/>
</svg>
