<svg width="38" height="38" viewBox="0 0 38 38" fill="none" xmlns="http://www.w3.org/2000/svg">
<path d="M2.375 2.375C3.68867 2.375 4.75 3.43633 4.75 4.75V29.6875C4.75 30.3406 5.28438 30.875 5.9375 30.875H35.625C36.9387 30.875 38 31.9363 38 33.25C38 34.5637 36.9387 35.625 35.625 35.625H5.9375C2.65703 35.625 0 32.968 0 29.6875V4.75C0 3.43633 1.06133 2.375 2.375 2.375ZM11.875 16.625C13.1887 16.625 14.25 17.6863 14.25 19V23.75C14.25 25.0637 13.1887 26.125 11.875 26.125C10.5613 26.125 9.5 25.0637 9.5 23.75V19C9.5 17.6863 10.5613 16.625 11.875 16.625ZM21.375 11.875V23.75C21.375 25.0637 20.3137 26.125 19 26.125C17.6863 26.125 16.625 25.0637 16.625 23.75V11.875C16.625 10.5613 17.6863 9.5 19 9.5C20.3137 9.5 21.375 10.5613 21.375 11.875ZM26.125 14.25C27.4387 14.25 28.5 15.3113 28.5 16.625V23.75C28.5 25.0637 27.4387 26.125 26.125 26.125C24.8113 26.125 23.75 25.0637 23.75 23.75V16.625C23.75 15.3113 24.8113 14.25 26.125 14.25ZM35.625 7.125V23.75C35.625 25.0637 34.5637 26.125 33.25 26.125C31.9363 26.125 30.875 25.0637 30.875 23.75V7.125C30.875 5.81133 31.9363 4.75 33.25 4.75C34.5637 4.75 35.625 5.81133 35.625 7.125Z" fill="#7F7F7F"/>
</svg>
