<svg width="38" height="38" viewBox="0 0 38 38" fill="none" xmlns="http://www.w3.org/2000/svg">
<path d="M0 7.125C0 4.50508 2.13008 2.375 4.75 2.375H33.25C35.8699 2.375 38 4.50508 38 7.125V30.875C38 33.4949 35.8699 35.625 33.25 35.625H4.75C2.13008 35.625 0 33.4949 0 30.875V7.125ZM4.75 7.125V11.875H9.5V7.125H4.75ZM33.25 7.125H14.25V11.875H33.25V7.125ZM4.75 16.625V21.375H9.5V16.625H4.75ZM33.25 16.625H14.25V21.375H33.25V16.625ZM4.75 26.125V30.875H9.5V26.125H4.75ZM33.25 26.125H14.25V30.875H33.25V26.125Z" fill="#7F7F7F"/>
</svg>
